<svg width="40" height="40" viewBox="0 0 40 40" fill="none" xmlns="http://www.w3.org/2000/svg">
<rect width="40" height="40" rx="20" fill="#8E6CEF"/>
<path d="M17 17.1134V16.4667C17 14.9667 18.2067 13.4934 19.7067 13.3534C20.1235 13.3124 20.5442 13.3592 20.9418 13.4907C21.3394 13.6221 21.7051 13.8354 22.0153 14.1167C22.3256 14.3981 22.5734 14.7412 22.743 15.1241C22.9126 15.5071 23.0002 15.9212 23 16.34V17.26M14.54 23.04L14.6933 24.2867C14.84 25.5934 15.32 26.6667 18 26.6667H22C24.68 26.6667 25.16 25.5934 25.3 24.2867L25.8 20.2867C25.98 18.66 25.5133 17.3334 22.6667 17.3334H17.3333C14.4867 17.3334 14.02 18.66 14.2 20.2867" stroke="white" stroke-width="1.5" stroke-miterlimit="10" stroke-linecap="round" stroke-linejoin="round"/>
<path d="M22.33 20H22.336M17.6633 20H17.6687" stroke="white" stroke-width="2" stroke-linecap="round" stroke-linejoin="round"/>
</svg>
