<svg width="25" height="24" viewBox="0 0 25 24" fill="none" xmlns="http://www.w3.org/2000/svg">
<path d="M12.6667 6.441V9.771M21.2567 15.17C21.9867 16.39 21.4067 17.97 20.0567 18.42C15.2754 20.01 10.1079 20.01 5.32666 18.42C3.88666 17.94 3.33667 16.48 4.12667 15.17L5.39667 13.05C5.74667 12.47 6.02667 11.44 6.02667 10.77V8.67C6.02535 7.79456 6.19665 6.92744 6.53075 6.11826C6.86486 5.30907 7.35523 4.5737 7.97379 3.9542C8.59236 3.33471 9.327 2.84324 10.1357 2.50792C10.9444 2.1726 11.8112 2 12.6867 2C16.3467 2 19.3467 5 19.3467 8.66V10.76C19.3467 10.94 19.3667 11.14 19.3967 11.35" stroke="#272727" stroke-opacity="0.5" stroke-width="1.5" stroke-miterlimit="10" stroke-linecap="round"/>
<path d="M15.9967 18.8199C15.9967 20.6499 14.4967 22.1499 12.6667 22.1499C11.7567 22.1499 10.9167 21.7699 10.3167 21.1699C9.71667 20.5699 9.33667 19.7299 9.33667 18.8199" stroke="#272727" stroke-opacity="0.5" stroke-width="1.5" stroke-miterlimit="10"/>
</svg>
